<svg xmlns="http://www.w3.org/2000/svg" width="236" height="70" preserveAspectRatio="none"><path fill="none" d="M-406-1464H994v3600H-406z"/><path d="M231 5v14h-14V5h14m0-2h-14c-1.1 0-2 .9-2 2v14c0 1.1.9 2 2 2h14c1.1 0 2-.9 2-2V5c0-1.1-.9-2-2-2z"/><path fill="none" d="M212 0h24v24h-24z"/><path fill="none" d="M-406-1040H994v3600H-406z"/><path fill="none" d="M212 40h24v24h-24z"/><path d="M231 43h-14c-1.1 0-2 .9-2 2v14c0 1.1.9 2 2 2h14c1.1 0 2-.9 2-2V45c0-1.1-.9-2-2-2zm-9 14l-5-5 1.4-1.4 3.6 3.6 7.6-7.6L231 48l-9 9z"/><g><path fill-opacity=".09" d="M0 0h105v70H0z"/><path d="M52.5 15c-11 0-20 9-20 20s9 20 20 20 20-9 20-20-9-20-20-20zm-2 35.9c-7.9-1-14-7.7-14-15.9 0-1.2.2-2.4.4-3.6l9.6 9.6v2c0 2.2 1.8 4 4 4v3.9zm13.8-5.1c-.5-1.6-2-2.8-3.8-2.8h-2v-6c0-1.1-.9-2-2-2h-12v-4h4c1.1 0 2-.9 2-2v-4h4c2.2 0 4-1.8 4-4v-.8c5.9 2.4 10 8.1 10 14.8 0 4.2-1.6 7.9-4.2 10.8z" fill="#fff"/></g><g><path fill-opacity=".09" d="M106 0h105v70H106z"/><path d="M173 21.2c-1.1-.4-7.8-.7-14.5-.7s-13.4.4-14.5.7c-2.8.9-3.6 7.2-3.6 13.8s.8 12.9 3.6 13.8c1.1.4 7.8.7 14.5.7s13.4-.4 14.5-.7c2.8-.9 3.6-7.2 3.6-13.8s-.8-12.9-3.6-13.8zm-18.1 22V26.8l10.9 8.2-10.9 8.2z" fill="#fff"/></g><g><path d="M221.625 31.97c0-1.05-.583-1.924-1.458-2.332v1.284l1.458 1.458v-.41zm1.458 0c0 .526-.116 1.05-.291 1.518l.875.875c.408-.7.583-1.575.583-2.45a5.259 5.259 0 00-4.083-5.133v1.225c1.691.583 2.916 2.099 2.916 3.966zm-8.575-5.25l-.758.759 2.742 2.742h-2.742v3.5h2.333L219 36.638v-3.909l2.508 2.509a4.859 4.859 0 01-1.341.7v1.225a4.969 4.969 0 002.158-1.05l1.167 1.167.758-.759-5.25-5.25-4.492-4.55zm4.492.584l-1.225 1.225L219 29.754v-2.45z" fill="#da4336"/><path fill="none" d="M212 25h14v14h-14z"/></g></svg>